<svg width="25" height="25" viewBox="0 0 25 25" fill="none" xmlns="http://www.w3.org/2000/svg">
<path d="M23.8752 12.3125C23.8771 13.8306 23.5795 15.3341 22.9992 16.737C22.419 18.1398 21.5676 19.4143 20.4939 20.4875C19.4197 21.562 18.1442 22.4142 16.7404 22.9955C15.3366 23.5767 13.8321 23.8756 12.3127 23.875C10.6774 23.8786 9.06021 23.5334 7.56893 22.8625L2.73518 23.5775C2.49518 23.6167 2.24924 23.5967 2.01873 23.5192C1.78821 23.4418 1.58009 23.3092 1.41244 23.1331C1.24479 22.9569 1.12268 22.7425 1.05672 22.5085C0.990753 22.2744 0.982932 22.0278 1.03393 21.79L1.70518 16.8863C1.06667 15.4465 0.741162 13.8875 0.750182 12.3125C0.748241 10.7944 1.04591 9.29087 1.62613 7.88804C2.20636 6.48522 3.05772 5.21069 4.13143 4.1375C5.20567 3.06302 6.48114 2.2108 7.88493 1.62955C9.28873 1.0483 10.7933 0.749422 12.3127 0.750001C15.381 0.750205 18.3236 1.96863 20.4939 4.1375C21.5671 5.2111 22.4181 6.4857 22.9983 7.88844C23.5785 9.29117 23.8764 10.7945 23.8752 12.3125Z" stroke="#70716F" stroke-width="1.5" stroke-linecap="round" stroke-linejoin="round"/>
</svg>
