<svg width="20" height="20" viewBox="0 0 20 20" fill="none" xmlns="http://www.w3.org/2000/svg">
<path d="M15 5.83333L14.2617 14.4517C14.1692 15.5267 14.1233 16.065 13.8842 16.4717C13.6737 16.8301 13.3609 17.1174 12.9858 17.2967C12.56 17.5 12.0192 17.5 10.94 17.5H9.06C7.98 17.5 7.44 17.5 7.01417 17.2967C6.63913 17.1174 6.32627 16.8301 6.11583 16.4717C5.87667 16.065 5.83083 15.5267 5.73833 14.4517L5 5.83333M3.75 5.41667H7.59583M7.59583 5.41667L7.9175 3.19C8.01083 2.785 8.3475 2.5 8.73417 2.5H11.2658C11.6525 2.5 11.9883 2.785 12.0825 3.19L12.4042 5.41667M7.59583 5.41667H12.4042M12.4042 5.41667H16.25" stroke="black" stroke-linecap="round" stroke-linejoin="round"/>
</svg>
