<svg width="40" height="40" viewBox="0 0 40 40" fill="none" xmlns="http://www.w3.org/2000/svg">
<path d="M6.66675 35.0006H33.3334M9.44341 21.9789C8.73277 22.6911 8.33359 23.6561 8.33341 24.6622V30.0006H13.7051C14.7117 30.0006 15.6767 29.6006 16.3884 28.8872L32.2217 13.0456C32.9321 12.3332 33.3311 11.3683 33.3311 10.3622C33.3311 9.3562 32.9321 8.39123 32.2217 7.67889L30.6584 6.11223C30.3058 5.75948 29.8872 5.47968 29.4264 5.28884C28.9657 5.098 28.4718 4.99985 27.9731 5C27.4743 5.00015 26.9805 5.09861 26.5199 5.28974C26.0592 5.48087 25.6408 5.76093 25.2884 6.11389L9.44341 21.9789Z" stroke="black" stroke-width="1.5" stroke-linecap="round" stroke-linejoin="round"/>
</svg>
