<svg width="26" height="26" viewBox="0 0 26 26" fill="none" xmlns="http://www.w3.org/2000/svg">
<path d="M4.3335 22.7504H21.6668M6.13833 14.2863C5.67641 14.7492 5.41695 15.3765 5.41683 16.0304V19.5004H8.90841C9.56275 19.5004 10.19 19.2404 10.6526 18.7767L20.9442 8.47961C21.406 8.01659 21.6653 7.38936 21.6653 6.73545C21.6653 6.08153 21.406 5.4543 20.9442 4.99128L19.9281 3.97295C19.6989 3.74366 19.4268 3.5618 19.1273 3.43775C18.8278 3.3137 18.5068 3.2499 18.1826 3.25C17.8584 3.2501 17.5375 3.3141 17.238 3.43833C16.9386 3.56257 16.6666 3.7446 16.4376 3.97403L6.13833 14.2863Z" stroke="black" stroke-width="1.5" stroke-linecap="round" stroke-linejoin="round"/>
</svg>
