<svg width="324" height="136" viewBox="0 0 324 136" fill="none" xmlns="http://www.w3.org/2000/svg">
<g clip-path="url(#clip0_231_642)">
<path d="M0.137396 68.0742C0.0444517 69.095 0 70.1318 0 71.1808L0.137396 68.0742Z" fill="#C0DA58"/>
<path d="M15.263 99.7615C15.1256 99.7777 14.9922 99.7898 14.8589 99.8019V99.4912C14.9922 99.584 15.1256 99.6768 15.263 99.7615Z" fill="#C0DA58"/>
<path d="M293.106 60.9014C292.666 61.0385 292.221 61.1596 291.772 61.2725L293.106 60.9014Z" fill="#C0DA58"/>
<path d="M0 71.1808C0 70.1318 0.0444517 69.095 0.137396 68.0742L0 71.1808ZM14.859 99.4911V99.8018C14.9923 99.7897 15.1257 99.7776 15.2631 99.7614C15.1257 99.6767 14.9923 99.5839 14.859 99.4911Z" fill="#C0DA58"/>
<path d="M14.8589 99.4912V99.8019C14.9922 99.7898 15.1256 99.7777 15.263 99.7615C15.1256 99.6768 14.9922 99.584 14.8589 99.4912Z" fill="#C0DA58"/>
<path d="M211.845 65.0488C211.837 65.2465 211.833 65.4402 211.833 65.6379V65.0488H211.845Z" fill="#C0DA58"/>
<path d="M291.772 61.2725C292.221 61.1596 292.666 61.0385 293.106 60.9014L291.772 61.2725Z" fill="#C0DA58"/>
<path d="M293.106 60.9014C292.666 61.0385 292.221 61.1596 291.772 61.2725L293.106 60.9014Z" fill="#C0DA58"/>
<path d="M211.833 65.0488V65.6379C211.833 65.4402 211.837 65.2465 211.845 65.0488H211.833Z" fill="#C0DA58"/>
<path d="M19.7527 87.8477V102.227C19.7527 102.227 19.7567 102.231 19.7648 102.235C20.2215 102.521 31.7102 109.549 58.6519 101.509C58.656 101.509 58.6641 101.509 58.6681 101.509C66.0713 98.7531 73.0098 95.2955 79.3583 91.2327C84.046 88.231 88.4143 84.9025 92.4109 81.2795C101.58 72.9926 108.797 63.1847 113.461 52.3721C115.263 48.2004 116.682 43.8754 117.684 39.4293C118.848 34.2934 119.454 29.0001 119.454 23.5857L119.353 19.8215V19.7973C118.508 10.9496 112.548 3.63902 104.546 1.03271C102.506 0.36298 100.327 0.00390625 98.0684 0.00390625C92.5524 0.00390625 87.5253 2.15028 83.7348 5.67242C83.4398 5.94274 83.1529 6.22515 82.8781 6.5116C79.0472 10.4775 76.6872 15.9403 76.6872 21.9639H76.6266V68.6394C83.0721 64.1005 88.2204 58.1617 91.4855 51.3352V23.4365C91.4855 21.5846 92.2291 19.7812 93.6233 18.5627C94.6214 17.6873 96.0519 16.9893 98.0684 16.9893C99.7535 16.9893 101.313 17.6752 102.59 18.8452C104.583 20.6647 105.472 23.4082 105.059 26.075C104.591 29.0767 103.936 32.03 103.1 34.9268C102.861 35.762 102.611 36.585 102.34 37.408C101.629 39.5907 100.812 41.7371 99.9031 43.8431C97.8138 48.6725 95.2195 53.3001 92.1685 57.6775C89.4004 62.5956 85.6341 66.9812 81.1081 70.6203C78.6996 72.9442 76.1457 75.1591 73.4543 77.2571C70.3306 79.694 65.1863 83.5631 61.711 85.661C62.3333 84.1077 63.5942 81.34 63.9861 79.6819C64.362 78.1124 64.6893 76.8537 64.8388 75.2076C64.9398 74.1424 64.9883 73.0652 64.9883 71.9759C64.9883 53.2557 51.2366 37.2951 33.0074 37.2951C20.1447 37.2951 9.00348 44.8477 3.55613 55.8701C3.44298 56.096 3.33387 56.3219 3.23285 56.5519C1.57197 60.0982 0.501091 63.9835 0.137396 68.0826C0.0444517 69.1033 0 70.1402 0 71.1892V136.008H14.859V70.2047C14.9236 69.4947 14.9883 69.0791 15.0408 68.5869C16.136 58.5328 23.7938 50.7462 33.0761 50.7462C43.11 50.7462 51.6488 59.8441 51.6488 71.0641C51.6488 73.4969 51.2649 76.2323 50.5617 78.3948C50.1213 79.7626 49.5515 81.0617 48.8685 82.2761C45.6518 87.989 39.5579 91.382 33.0761 91.382C29.2128 91.382 22.6946 90.1515 19.7527 87.8558" fill="#C0DA58"/>
<path d="M211.845 65.0488C211.837 65.2465 211.833 65.4402 211.833 65.6379V65.0488H211.845Z" fill="#C0DA58"/>
<path d="M190.601 105.806C190.601 105.806 212.41 105.85 212.41 91.1885V64.5203H212.422C212.604 59.8806 214.936 55.7976 218.431 53.2841C220.751 51.6138 223.584 50.6334 226.643 50.6334C228.938 50.6334 231.108 51.1862 233.028 52.1706C237.521 54.4622 240.657 59.11 240.867 64.5203H240.879V89.1269C240.879 96.9216 246.206 103.748 253.803 105.551C256.223 106.128 259.088 106.475 262.479 106.475C265.005 106.475 267.223 106.282 269.179 105.951C277.354 104.555 283.315 97.4542 283.315 89.1753V73.3721C284.297 73.2551 285.299 73.1945 286.317 73.1945C288.855 73.1945 291.292 73.5657 293.571 74.2556C294.472 74.5259 295.345 74.8487 296.189 75.2118C303.827 78.5201 309.092 85.5402 309.092 93.6698V104.551H323.955V92.1165C323.955 85.8347 322.105 80.0089 318.949 75.2118C316.552 71.5686 313.4 68.5185 309.735 66.3116C312.491 64.7704 314.972 62.7572 317.082 60.3768C320.407 56.6328 323.802 48.0634 323.955 42.7701C324.065 39.0261 323.955 33.5714 323.955 33.5714H309.092V36.9645C309.092 45.9534 302.651 57.6253 293.688 60.3768C293.247 60.514 292.803 60.635 292.354 60.748C290.431 61.2201 288.406 61.4742 286.317 61.4742C285.299 61.4742 284.297 61.4137 283.315 61.2967V0.0283203H268.452V37.6019C268.419 37.5938 268.484 37.61 268.452 37.6019C268.468 38.2999 268.452 39.2561 268.452 40.0831L268.553 86.0405C268.553 87.3759 268.217 88.7073 267.498 89.8329C266.617 91.2087 265.029 92.5805 262.212 92.5805C262.156 92.5805 262.099 92.5805 262.042 92.5805C258.531 92.524 255.734 89.6231 255.763 86.1171C255.811 80.1944 255.755 67.6672 255.746 62.152C255.746 61.1313 255.637 55.6726 255.395 54.6801C254.191 49.6894 248.962 36.9806 226.95 36.9806C208.85 36.9806 201.839 45.8122 199.16 51.8075C198.048 54.2928 197.551 57.008 197.62 59.7313C197.773 65.9687 197.592 81.7881 197.559 86.7142C197.547 88.2917 196.961 89.8329 195.834 90.9384C194.852 91.8986 193.336 92.7096 191.009 92.7096C188.107 92.7096 186.426 91.4508 185.472 90.2081C184.697 89.1995 184.305 87.9488 184.305 86.6739V70.6568C184.305 65.3877 183.133 60.401 181.043 55.955H181.039C180.773 55.37 180.482 54.8051 180.179 54.2443C180.037 53.97 179.884 53.6997 179.726 53.4294C177.406 49.3948 174.295 45.9009 170.609 43.1696C165.178 39.1391 158.506 36.7627 151.297 36.7627C142.678 36.7627 134.826 40.1558 128.946 45.7234C125.451 49.0196 122.654 53.0905 120.803 57.6656C119.183 61.6638 118.29 66.0534 118.29 70.6568C118.29 75.2602 119.155 79.5166 120.731 83.4665C117.215 89.1108 112.386 91.3741 106.466 90.7084C100.679 90.0548 95.2275 86.8111 92.9928 80.7512C88.9962 84.3742 85.0158 87.4526 80.3281 90.4543C86.3412 98.8017 95.6114 105.273 106.498 105.273C115.122 105.273 122.973 101.069 128.853 95.5055C134.745 101.122 142.633 104.551 151.297 104.551C158.001 104.551 164.039 103.421 169.248 99.891L169.223 99.8547C167.336 96.8006 165.986 93.4559 165.219 89.962C164.916 88.5742 164.956 87.1338 165.34 85.7702C158.296 91.2531 151.285 90.8496 151.285 90.8496C145.559 90.8496 140.451 87.8843 137.121 83.2486C134.62 79.7627 133.125 75.3449 133.125 70.5317C133.125 65.7186 134.612 61.3249 137.101 57.8472C140.431 53.1913 145.547 50.2138 151.285 50.2138C155.039 50.2138 158.523 51.4888 161.42 53.6674C166.261 57.3187 169.446 63.5076 169.446 70.5317C169.446 70.5317 168.746 88.2554 169.446 91.011C169.446 91.011 171.628 105.806 190.605 105.806" fill="#C0DA58"/>
</g>
<defs>
<clipPath id="clip0_231_642">
<rect width="324" height="136" fill="white"/>
</clipPath>
</defs>
</svg>
