<svg width="40" height="40" viewBox="0 0 40 40" fill="none" xmlns="http://www.w3.org/2000/svg">
<path d="M30 31C29.3667 18.7504 10.6333 18.7504 10 31M24 13.9375C24 14.9818 23.5786 15.9833 22.8284 16.7217C22.0783 17.4602 21.0609 17.875 20 17.875C18.9391 17.875 17.9217 17.4602 17.1716 16.7217C16.4214 15.9833 16 14.9818 16 13.9375C16 12.8932 16.4214 11.8917 17.1716 11.1533C17.9217 10.4148 18.9391 10 20 10C21.0609 10 22.0783 10.4148 22.8284 11.1533C23.5786 11.8917 24 12.8932 24 13.9375Z" stroke="#90A442" stroke-width="1.5" stroke-linecap="round" stroke-linejoin="round"/>
</svg>
