<svg width="40" height="40" viewBox="0 0 40 40" fill="none" xmlns="http://www.w3.org/2000/svg">
<path d="M24.1667 25.0001C24.1667 18.5651 14.1667 18.5651 14.1667 25.0001" stroke="#90A442" stroke-width="1.5" stroke-linecap="round" stroke-linejoin="round"/>
<path d="M19.1667 19.9987C20.0508 19.9987 20.8986 19.6475 21.5237 19.0224C22.1489 18.3973 22.5 17.5494 22.5 16.6654C22.5 15.7813 22.1489 14.9335 21.5237 14.3083C20.8986 13.6832 20.0508 13.332 19.1667 13.332C18.2827 13.332 17.4348 13.6832 16.8097 14.3083C16.1846 14.9335 15.8334 15.7813 15.8334 16.6654C15.8334 17.5494 16.1846 18.3973 16.8097 19.0224C17.4348 19.6475 18.2827 19.9987 19.1667 19.9987Z" stroke="#90A442" stroke-width="1.5" stroke-linecap="round" stroke-linejoin="round"/>
<path d="M28.155 28.1993L33.2884 33.3327M31.6667 19.166C31.6667 22.4812 30.3497 25.6606 28.0055 28.0048C25.6613 30.3491 22.4819 31.666 19.1667 31.666C15.8515 31.666 12.6721 30.3491 10.3279 28.0048C7.98365 25.6606 6.66669 22.4812 6.66669 19.166C6.66669 15.8508 7.98365 12.6714 10.3279 10.3272C12.6721 7.98298 15.8515 6.66602 19.1667 6.66602C22.4819 6.66602 25.6613 7.98298 28.0055 10.3272C30.3497 12.6714 31.6667 15.8508 31.6667 19.166Z" stroke="#90A442" stroke-width="1.5" stroke-linecap="round" stroke-linejoin="round"/>
</svg>
