<svg width="30" height="30" viewBox="0 0 30 30" fill="none" xmlns="http://www.w3.org/2000/svg">
<path d="M3.47124 24.7286L4.22999 19.5261C4.27624 19.1861 4.43124 18.8699 4.67374 18.6261L19.375 3.90488C19.5653 3.71182 19.8022 3.57116 20.0628 3.49648C20.3234 3.42181 20.5988 3.41566 20.8625 3.47863C22.2121 3.8517 23.4354 4.58346 24.4025 5.59613C25.4124 6.56982 26.139 7.79936 26.505 9.15362C26.568 9.41729 26.5618 9.69274 26.4871 9.95333C26.4125 10.2139 26.2718 10.4508 26.0787 10.6411L11.3612 25.3436C11.1171 25.5855 10.8006 25.7409 10.46 25.7861L5.25874 26.5449C5.01305 26.5807 4.76236 26.5581 4.52702 26.479C4.29168 26.3998 4.0783 26.2663 3.9042 26.0893C3.73009 25.9123 3.60016 25.6967 3.52494 25.4601C3.44971 25.2235 3.43132 24.9724 3.47124 24.7274M16.5937 6.70488L23.2975 13.4086" stroke="#70716F" stroke-width="1.5" stroke-linecap="round" stroke-linejoin="round"/>
</svg>
