<svg width="62" height="70" viewBox="0 0 62 70" fill="none" xmlns="http://www.w3.org/2000/svg">
<g clip-path="url(#clip0_163_655)">
<path d="M7.92201 51.3491C7.85041 51.357 7.78147 51.3635 7.71252 51.3701V51.21C7.78147 51.2572 7.85041 51.3058 7.92201 51.3491Z" fill="#C0DA58"/>
<path d="M0 36.6374C0 36.0979 0.0225397 35.5637 0.0715966 35.0386L0 36.6374ZM7.71254 51.2098V51.3699C7.78149 51.3634 7.85043 51.3581 7.92203 51.3489C7.85043 51.3056 7.78149 51.257 7.71254 51.2098Z" fill="#C0DA58"/>
<path d="M7.71252 51.21V51.3701C7.78147 51.3635 7.85041 51.3583 7.92201 51.3491C7.85041 51.3058 7.78147 51.2572 7.71252 51.21Z" fill="#C0DA58"/>
<path d="M10.2528 45.216V52.617C10.2528 52.617 10.2555 52.6196 10.2594 52.6209C10.4968 52.768 16.4592 56.3858 30.4431 52.2468C30.4457 52.2468 30.4497 52.2442 30.451 52.2442C34.2934 50.8265 37.8944 49.0465 41.1905 46.9553C43.6235 45.4103 45.8907 43.6972 47.9657 41.8318C52.7242 37.5668 56.4711 32.5182 58.8908 26.9523C59.8268 24.8047 60.5627 22.5784 61.0824 20.2903C61.687 17.6465 62.0012 14.9227 62.0012 12.1358L61.9482 10.1983V10.1864C61.5094 5.63267 58.4161 1.86914 54.2635 0.527555C53.2041 0.182314 52.0732 -0.00146484 50.9011 -0.00146484C48.0386 -0.00146484 45.4293 1.10383 43.4617 2.91668C43.3092 3.05583 43.1594 3.20154 43.0175 3.34856C41.0288 5.38982 39.8036 8.20163 39.8036 11.3022H39.7718V35.3261C42.706 32.8227 45.5857 29.6158 47.4844 26.4193V12.061C47.4844 11.108 47.8702 10.1799 48.5954 9.55109C49.1139 9.10083 49.8563 8.74115 50.9011 8.74115C51.7762 8.74115 52.5863 9.09427 53.2492 9.69549C54.2834 10.6328 54.7461 12.0452 54.53 13.4157C54.2874 14.9607 53.9466 16.4809 53.5117 17.9721V17.9747C53.3884 18.4027 53.2585 18.8267 53.118 19.2494C52.7494 20.373 52.3251 21.477 51.8531 22.5613C50.7685 25.0476 49.4228 27.4288 47.8384 29.6814C46.075 32.3239 44.2546 34.352 42.0974 36.3434C40.8471 37.5393 39.5212 38.68 38.1251 39.7591C36.5036 41.0127 33.8346 43.0054 32.0301 44.0844C32.3536 43.285 33.0086 41.8607 33.2115 41.0074C33.4064 40.2001 33.5761 39.5517 33.653 38.705C33.706 38.1562 33.7312 37.6023 33.7312 37.0418C33.7312 27.4065 26.5928 19.1916 17.1314 19.1916C10.4557 19.1916 4.67226 23.0785 1.84552 28.752C1.78719 28.8689 1.73017 28.9844 1.67714 29.1025C0.815328 30.9285 0.259791 32.9277 0.0701928 35.0373C0.0224617 35.5623 -0.00140381 36.0966 -0.00140381 36.6361V69.9985H7.71114V36.1294C7.74561 35.7645 7.77876 35.5505 7.80528 35.2972C8.37407 30.1225 12.3477 26.1148 17.1659 26.1148C22.3739 26.1148 26.8062 30.7972 26.8062 36.5731C26.8062 37.8254 26.6073 39.2327 26.2414 40.3458C26.0133 41.0495 25.7177 41.7189 25.3624 42.3438C23.6931 45.2842 20.5296 47.0301 17.1659 47.0301C15.1612 47.0301 11.7776 46.3974 10.2502 45.2147" fill="#C0DA58"/>
<path d="M50.2688 41.8084L50.8216 56.6721C50.05 56.6997 49.3725 56.2599 49.0662 55.6075C48.9654 55.3922 48.9058 55.1546 48.8965 54.9026L48.4775 43.6422C48.146 43.9218 47.8079 44.1975 47.4632 44.4666L47.8636 55.2373C47.8703 55.4106 47.8477 55.5773 47.8 55.7348C47.6144 56.3505 47.0496 56.8099 46.3641 56.8349L46.1639 56.8428C45.4824 56.8677 44.8871 56.4555 44.655 55.8582C44.5941 55.7033 44.5569 55.5353 44.5503 55.3594L44.2507 47.2955C43.8741 47.5265 43.4936 47.7536 43.1051 47.9715L43.3703 55.1047C43.3796 55.3423 43.3424 55.5721 43.2655 55.7834C43.0189 56.4752 42.3666 56.9819 41.5817 57.0108L41.2953 49.3262C40.9095 49.5192 40.5197 49.7056 40.1246 49.8841L40.3844 56.8572L40.635 57.3429L40.7782 57.6225L44.0518 63.9629L44.0544 63.9655L44.3408 64.4171L46.0339 67.0871L46.0724 68.1137C46.0843 68.4326 46.3561 68.6821 46.677 68.6702L46.742 68.6676C47.0641 68.6558 47.3161 68.3867 47.3041 68.069L47.2617 66.9335L48.6923 64.2582L48.9429 63.787V63.7843L51.7378 57.2234L51.8611 56.9347L52.0746 56.4319L51.4832 40.5508C51.0908 40.98 50.6864 41.4001 50.2674 41.8097L50.2688 41.8084ZM47.7151 63.8198L47.731 63.8264L45.2676 63.9156L45.2835 63.9077L42.0749 58.0688C42.116 58.0701 42.1571 58.0688 42.1995 58.0688C42.9341 58.0426 43.5506 57.696 43.7999 57.2261L44.3461 57.2064C44.6802 57.6553 45.44 57.9507 46.3124 57.9192C47.1848 57.8877 47.922 57.5372 48.2216 57.0646L48.6976 57.0475C48.9827 57.4978 49.6231 57.7984 50.3563 57.7722C50.3987 57.7708 50.4398 57.7682 50.4809 57.7643L47.7151 63.8211V63.8198Z" fill="#C0DA58"/>
</g>
<defs>
<clipPath id="clip0_163_655">
<rect width="62" height="70" fill="white"/>
</clipPath>
</defs>
</svg>
