<svg width="42" height="42" viewBox="0 0 42 42" fill="none" xmlns="http://www.w3.org/2000/svg">
<path d="M15.7133 29.75H26.2833H32.6077C35.8907 29.75 35.336 26.495 33.6753 24.843C30.345 21.5355 31.5017 15.8392 30.5602 11.438M15.7133 29.75C15.7133 33.1187 16.849 36.75 21 36.75C25.151 36.75 26.285 33.1187 26.285 29.75M15.7133 29.75H12.25M12.25 29.75L5.25 36.75M12.25 29.75L30.562 11.438L36.75 5.25M27.125 6.454C25.7022 5.69275 23.7352 5.25 21 5.25C5.81 5.25 14.3045 18.9 8.323 24.843C7.83546 25.3334 7.46149 25.9248 7.2275 26.5755" stroke="#70716F" stroke-width="1.5" stroke-linecap="round" stroke-linejoin="round"/>
</svg>
