<svg width="28" height="28" viewBox="0 0 28 28" fill="none" xmlns="http://www.w3.org/2000/svg">
<path fill-rule="evenodd" clip-rule="evenodd" d="M14 1.45825C11.602 1.45825 9.30222 2.41085 7.60657 4.1065C5.91093 5.80214 4.95833 8.10192 4.95833 10.4999V11.3213C4.95826 12.1343 4.71754 12.9291 4.2665 13.6056L2.92833 15.6158C1.372 17.9491 2.55967 21.1201 5.26517 21.8574C6.14639 22.0978 7.03461 22.3011 7.92983 22.4676L7.93217 22.4734C8.82817 24.8674 11.2257 26.5416 14 26.5416C16.7743 26.5416 19.1718 24.8674 20.069 22.4734L20.0713 22.4676C20.9674 22.3002 21.8564 22.0966 22.736 21.8574C25.4415 21.1201 26.6292 17.9491 25.0728 15.6158L23.7335 13.6056C23.2825 12.9291 23.0417 12.1343 23.0417 11.3213V10.4999C23.0417 8.10192 22.0891 5.80214 20.3934 4.1065C18.6978 2.41085 16.398 1.45825 14 1.45825ZM17.9387 22.7931C15.3218 23.1053 12.6771 23.1053 10.0602 22.7931C10.8897 23.9843 12.3328 24.7916 14 24.7916C15.6672 24.7916 17.1092 23.9843 17.9387 22.7931ZM6.70833 10.4999C6.70833 8.56605 7.47656 6.71138 8.84401 5.34393C10.2115 3.97648 12.0661 3.20825 14 3.20825C15.9339 3.20825 17.7885 3.97648 19.156 5.34393C20.5234 6.71138 21.2917 8.56605 21.2917 10.4999V11.3213C21.2917 12.4798 21.6347 13.6126 22.2775 14.5763L23.6168 16.5864C23.8244 16.8972 23.955 17.2529 23.998 17.6242C24.0409 17.9954 23.995 18.3716 23.8639 18.7216C23.7329 19.0716 23.5205 19.3854 23.2442 19.6371C22.968 19.8888 22.6358 20.0712 22.2752 20.1693C16.8569 21.6469 11.1419 21.6469 5.72367 20.1693C5.36321 20.0711 5.03123 19.8888 4.75512 19.6371C4.47902 19.3855 4.26668 19.0718 4.13564 18.722C4.00459 18.3722 3.95859 17.9962 4.00143 17.6251C4.04426 17.254 4.1747 16.8984 4.382 16.5876L5.72367 14.5763C6.36596 13.6122 6.70857 12.4797 6.70833 11.3213V10.4999Z" fill="#70716F"/>
</svg>
