<svg width="20" height="20" viewBox="0 0 20 20" fill="none" xmlns="http://www.w3.org/2000/svg">
<path d="M2.12499 11.172C1.89832 10.8612 1.78499 10.7053 1.70665 10.4053C1.65377 10.1382 1.65377 9.86329 1.70665 9.59616C1.78499 9.29533 1.89832 9.13949 2.12499 8.82949C3.36582 7.12533 6.08582 4.16699 9.99999 4.16699C13.9142 4.16699 16.6342 7.12533 17.875 8.82866C18.1017 9.13949 18.215 9.29533 18.2933 9.59533C18.3462 9.86246 18.3462 10.1374 18.2933 10.4045C18.215 10.7053 18.1017 10.8612 17.875 11.1712C16.6342 12.8753 13.9142 15.8337 9.99999 15.8337C6.08582 15.8337 3.36582 12.8753 2.12499 11.172Z" stroke="black" stroke-linecap="round" stroke-linejoin="round"/>
<path d="M17.5 2.5L2.5 17.5" stroke="black" stroke-linecap="round" stroke-linejoin="round"/>
<circle cx="10" cy="10" r="3" stroke="black"/>
</svg>
