<svg width="26" height="26" viewBox="0 0 26 26" fill="none" xmlns="http://www.w3.org/2000/svg">
<path d="M12.625 24.5C15.7744 24.5 18.7949 23.2489 21.0219 21.0219C23.2489 18.7949 24.5 15.7744 24.5 12.625C24.5 9.47555 23.2489 6.4551 21.0219 4.22811C18.7949 2.00111 15.7744 0.75 12.625 0.75C9.47555 0.75 6.4551 2.00111 4.22811 4.22811C2.00111 6.4551 0.75 9.47555 0.75 12.625C0.75 15.7744 2.00111 18.7949 4.22811 21.0219C6.4551 23.2489 9.47555 24.5 12.625 24.5Z" stroke="#70716F" stroke-width="1.5" stroke-linecap="round" stroke-linejoin="round"/>
<path d="M5.5925 22.1913C6.25924 20.9012 7.26798 19.8194 8.50833 19.0643C9.74868 18.3091 11.1729 17.9097 12.625 17.9097C14.0771 17.9097 15.5013 18.3091 16.7417 19.0643C17.982 19.8194 18.9908 20.9012 19.6575 22.1913M12.625 13.945C13.7518 13.945 14.8325 13.4974 15.6293 12.7006C16.4261 11.9038 16.8737 10.8231 16.8737 9.69626C16.8737 8.56942 16.4261 7.48874 15.6293 6.69194C14.8325 5.89514 13.7518 5.44751 12.625 5.44751C11.4982 5.44751 10.4175 5.89514 9.62068 6.69194C8.82388 7.48874 8.37625 8.56942 8.37625 9.69626C8.37625 10.8231 8.82388 11.9038 9.62068 12.7006C10.4175 13.4974 11.4982 13.945 12.625 13.945Z" stroke="#70716F" stroke-width="1.5" stroke-linecap="round" stroke-linejoin="round"/>
</svg>
