<svg width="30" height="30" viewBox="0 0 30 30" fill="none" xmlns="http://www.w3.org/2000/svg">
<path d="M3.75 13.2812H26.25M21.25 3.28125V8.28125M8.75 3.28125V8.28125M21.25 5.78125H8.75C7.42392 5.78125 6.15215 6.30803 5.21447 7.24572C4.27678 8.1834 3.75 9.45517 3.75 10.7812V21.7188C3.75 23.0448 4.27678 24.3166 5.21447 25.2543C6.15215 26.192 7.42392 26.7188 8.75 26.7188H21.25C22.5761 26.7188 23.8479 26.192 24.7855 25.2543C25.7232 24.3166 26.25 23.0448 26.25 21.7188V10.7812C26.25 9.45517 25.7232 8.1834 24.7855 7.24572C23.8479 6.30803 22.5761 5.78125 21.25 5.78125Z" stroke="#90A442" stroke-width="1.5" stroke-linecap="round" stroke-linejoin="round"/>
</svg>
