<svg width="30" height="30" viewBox="0 0 30 30" fill="none" xmlns="http://www.w3.org/2000/svg">
<path d="M7.66625 26.2501C6.19375 26.2501 5 25.0251 5 23.5126V12.5101C5 11.6789 5.36875 10.8914 6 10.3726L13.3337 4.3501C13.8023 3.96208 14.3916 3.74976 15 3.74976C15.6084 3.74976 16.1977 3.96208 16.6663 4.3501L23.9987 10.3726C24.6312 10.8914 25 11.6789 25 12.5101V23.5126C25 25.0251 23.8063 26.2501 22.3338 26.2501H7.66625Z" stroke="#90A442" stroke-width="1.5" stroke-linecap="round" stroke-linejoin="round"/>
<path d="M11.875 26.25V19.375C11.875 18.712 12.1384 18.0761 12.6072 17.6072C13.0761 17.1384 13.712 16.875 14.375 16.875H15.625C16.288 16.875 16.9239 17.1384 17.3928 17.6072C17.8616 18.0761 18.125 18.712 18.125 19.375V26.25" stroke="#90A442" stroke-width="1.5" stroke-linecap="round" stroke-linejoin="round"/>
</svg>
