<svg width="30" height="30" viewBox="0 0 30 30" fill="none" xmlns="http://www.w3.org/2000/svg">
<path d="M15 26.875C18.1494 26.875 21.1699 25.6239 23.3969 23.3969C25.6239 21.1699 26.875 18.1494 26.875 15C26.875 11.8506 25.6239 8.8301 23.3969 6.60311C21.1699 4.37611 18.1494 3.125 15 3.125C11.8506 3.125 8.8301 4.37611 6.60311 6.60311C4.37611 8.8301 3.125 11.8506 3.125 15C3.125 18.1494 4.37611 21.1699 6.60311 23.3969C8.8301 25.6239 11.8506 26.875 15 26.875Z" stroke="#90A442" stroke-width="1.5" stroke-linecap="round" stroke-linejoin="round"/>
<path d="M7.96753 24.5663C8.63427 23.2762 9.64301 22.1944 10.8834 21.4393C12.1237 20.6841 13.5479 20.2847 15 20.2847C16.4522 20.2847 17.8763 20.6841 19.1167 21.4393C20.357 22.1944 21.3658 23.2762 22.0325 24.5663M15 16.32C16.1269 16.32 17.2076 15.8724 18.0043 15.0756C18.8011 14.2788 19.2488 13.1981 19.2488 12.0713C19.2488 10.9444 18.8011 9.86374 18.0043 9.06694C17.2076 8.27014 16.1269 7.82251 15 7.82251C13.8732 7.82251 12.7925 8.27014 11.9957 9.06694C11.1989 9.86374 10.7513 10.9444 10.7513 12.0713C10.7513 13.1981 11.1989 14.2788 11.9957 15.0756C12.7925 15.8724 13.8732 16.32 15 16.32Z" stroke="#90A442" stroke-width="1.5" stroke-linecap="round" stroke-linejoin="round"/>
</svg>
