<svg width="30" height="30" viewBox="0 0 30 30" fill="none" xmlns="http://www.w3.org/2000/svg">
<path d="M3.47124 24.7289L4.22999 19.5264C4.27624 19.1864 4.43124 18.8701 4.67374 18.6264L19.375 3.90512C19.5653 3.71207 19.8022 3.5714 20.0628 3.49673C20.3234 3.42205 20.5988 3.4159 20.8625 3.47887C22.2121 3.85195 23.4354 4.5837 24.4025 5.59637C25.4124 6.57006 26.139 7.7996 26.505 9.15387C26.568 9.41753 26.5618 9.69298 26.4871 9.95357C26.4125 10.2142 26.2718 10.4511 26.0787 10.6414L11.3612 25.3439C11.1171 25.5857 10.8006 25.7411 10.46 25.7864L5.25874 26.5451C5.01305 26.581 4.76236 26.5584 4.52702 26.4792C4.29168 26.4001 4.0783 26.2666 3.9042 26.0896C3.73009 25.9125 3.60016 25.697 3.52494 25.4603C3.44971 25.2237 3.43132 24.9727 3.47124 24.7276M16.5937 6.70512L23.2975 13.4089" stroke="#90A442" stroke-width="1.5" stroke-linecap="round" stroke-linejoin="round"/>
</svg>
