<svg width="40" height="40" viewBox="0 0 40 40" fill="none" xmlns="http://www.w3.org/2000/svg">
<path d="M16.85 6.5C16.8913 6.08889 17.0839 5.70779 17.3903 5.43063C17.6967 5.15346 18.0952 4.99999 18.5083 5H21.4917C21.9048 4.99999 22.3033 5.15346 22.6097 5.43063C22.9161 5.70779 23.1087 6.08889 23.15 6.5L23.205 7.055C24.5017 7.37603 25.7428 7.89011 26.8867 8.58L27.3183 8.22667C27.6382 7.96513 28.0438 7.83175 28.4565 7.85238C28.8692 7.87301 29.2595 8.0462 29.5517 8.33833L31.6617 10.4483C31.9538 10.7405 32.127 11.1308 32.1476 11.5435C32.1683 11.9562 32.0349 12.3618 31.7733 12.6817L31.42 13.115C32.1017 14.2417 32.62 15.48 32.945 16.795L33.4983 16.85C33.9097 16.8909 34.2912 17.0833 34.5688 17.3898C34.8463 17.6962 35 18.0949 35 18.5083V21.4917C35 21.9048 34.8465 22.3033 34.5694 22.6097C34.2922 22.9161 33.9111 23.1087 33.5 23.15L32.945 23.205C32.624 24.5017 32.1099 25.7428 31.42 26.8867L31.7733 27.3183C32.0349 27.6382 32.1683 28.0438 32.1476 28.4565C32.127 28.8692 31.9538 29.2595 31.6617 29.5517L29.5517 31.6617C29.2595 31.9538 28.8692 32.127 28.4565 32.1476C28.0438 32.1683 27.6382 32.0349 27.3183 31.7733L26.885 31.42C25.7416 32.1097 24.5011 32.6238 23.205 32.945L23.15 33.4983C23.1091 33.9097 22.9167 34.2912 22.6102 34.5688C22.3038 34.8463 21.9051 35 21.4917 35H18.5083C18.0952 35 17.6967 34.8465 17.3903 34.5694C17.0839 34.2922 16.8913 33.9111 16.85 33.5L16.795 32.945C15.4983 32.624 14.2572 32.1099 13.1133 31.42L12.6817 31.7733C12.3618 32.0349 11.9562 32.1683 11.5435 32.1476C11.1308 32.127 10.7405 31.9538 10.4483 31.6617L8.33833 29.55C8.0462 29.2578 7.87301 28.8675 7.85238 28.4548C7.83175 28.0422 7.96513 27.6365 8.22667 27.3167L8.58 26.8833C7.89026 25.7399 7.37619 24.4994 7.055 23.2033L6.5 23.15C6.08889 23.1087 5.70779 22.9161 5.43063 22.6097C5.15346 22.3033 4.99999 21.9048 5 21.4917V18.5083C4.99999 18.0952 5.15346 17.6967 5.43063 17.3903C5.70779 17.0839 6.08889 16.8913 6.5 16.85L7.055 16.795C7.37603 15.4983 7.89011 14.2572 8.58 13.1133L8.22667 12.6817C7.96513 12.3618 7.83175 11.9562 7.85238 11.5435C7.87301 11.1308 8.0462 10.7405 8.33833 10.4483L10.45 8.33833C10.7422 8.0462 11.1325 7.87301 11.5452 7.85238C11.9578 7.83175 12.3635 7.96513 12.6833 8.22667L13.1167 8.58C14.26 7.89026 15.5006 7.37619 16.7967 7.055L16.85 6.5Z" stroke="black" stroke-width="1.5" stroke-linecap="round" stroke-linejoin="round"/>
<path d="M24.1666 20.0007C24.1666 18.8956 23.7276 17.8358 22.9462 17.0544C22.1648 16.273 21.105 15.834 19.9999 15.834C18.8949 15.834 17.835 16.273 17.0536 17.0544C16.2722 17.8358 15.8333 18.8956 15.8333 20.0007C15.8333 21.1057 16.2722 22.1655 17.0536 22.9469C17.835 23.7283 18.8949 24.1673 19.9999 24.1673C21.105 24.1673 22.1648 23.7283 22.9462 22.9469C23.7276 22.1655 24.1666 21.1057 24.1666 20.0007Z" stroke="black" stroke-width="1.5" stroke-linecap="round" stroke-linejoin="round"/>
</svg>
