<svg width="24" height="24" viewBox="0 0 24 24" fill="none" xmlns="http://www.w3.org/2000/svg">
<path d="M12 14C11.4696 14 10.9609 13.7893 10.5858 13.4142C10.2107 13.0391 10 12.5304 10 12C10 11.4696 10.2107 10.9609 10.5858 10.5858C10.9609 10.2107 11.4696 10 12 10C12.0353 10 12.0693 10.0017 12.102 10.005C12.614 10.0302 13.0967 10.2514 13.4501 10.6228C13.8035 10.9942 14.0004 11.4874 14 12C14 12.5304 13.7893 13.0391 13.4142 13.4142C13.0391 13.7893 12.5304 14 12 14ZM5 14C4.46957 14 3.96086 13.7893 3.58579 13.4142C3.21071 13.0391 3 12.5304 3 12C3 11.4696 3.21071 10.9609 3.58579 10.5858C3.96086 10.2107 4.46957 10 5 10C5.03467 10 5.06866 10.0017 5.102 10.005C5.61403 10.0302 6.09675 10.2514 6.4501 10.6228C6.80346 10.9942 7.00036 11.4874 7 12C7 12.5304 6.78928 13.0391 6.41421 13.4142C6.03914 13.7893 5.53043 14 5 14ZM19 14C18.4696 14 17.9609 13.7893 17.5858 13.4142C17.2107 13.0391 17 12.5304 17 12C17 11.4696 17.2107 10.9609 17.5858 10.5858C17.9609 10.2107 18.4696 10 19 10C19.0353 10 19.0693 10.0017 19.102 10.005C19.614 10.0302 20.0967 10.2514 20.4501 10.6228C20.8035 10.9942 21.0004 11.4874 21 12C21 12.5304 20.7893 13.0391 20.4142 13.4142C20.0391 13.7893 19.5304 14 19 14Z" fill="#575856"/>
</svg>
