<svg width="30" height="30" viewBox="0 0 30 30" fill="none" xmlns="http://www.w3.org/2000/svg">
<path d="M4.26772 15.1082C4.13091 15.0742 4.00797 14.9988 3.91577 14.8922C3.82357 14.7855 3.76664 14.653 3.75281 14.5127C3.73897 14.3724 3.76891 14.2313 3.8385 14.1088C3.90809 13.9862 4.01393 13.8882 4.14147 13.8282L25.2727 3.81941C25.3999 3.75927 25.5426 3.7399 25.6812 3.76396C25.8198 3.78802 25.9476 3.85433 26.0471 3.95381C26.1466 4.05329 26.2129 4.18108 26.2369 4.3197C26.261 4.45831 26.2416 4.60097 26.1815 4.72816L16.1727 25.8594C16.1128 25.987 16.0149 26.0929 15.8924 26.1625C15.7699 26.2322 15.6289 26.2623 15.4886 26.2486C15.3484 26.2349 15.2158 26.1781 15.1091 26.086C15.0024 25.994 14.9268 25.8711 14.8927 25.7344L12.8677 17.6307C12.8371 17.5108 12.7747 17.4015 12.6872 17.3142C12.5996 17.2268 12.4901 17.1647 12.3702 17.1344L4.26772 15.1082Z" stroke="black" stroke-width="1.5" stroke-linecap="round" stroke-linejoin="round"/>
</svg>
