<svg width="40" height="40" viewBox="0 0 40 40" fill="none" xmlns="http://www.w3.org/2000/svg">
<path d="M20 18.6667V18M25.2 18.6667V18M14.8 18.6667V18M8.9032 26.4373C7 24.876 7 23.6947 7 18.6667C7 13.6387 7 11.124 8.9032 9.56267C10.809 8 13.8718 8 20 8C26.1282 8 29.1923 8 31.0955 9.56267C32.9987 11.1253 33 13.6387 33 18.6667C33 23.6947 33 24.876 31.0955 26.4373C29.1936 28 26.1282 28 20 28C16.737 28 15.06 30.3173 12.2 32V27.7173C10.7778 27.5 9.7313 27.1173 8.9032 26.4373Z" stroke="#90A442" stroke-width="1.5" stroke-linecap="round" stroke-linejoin="round"/>
</svg>
