<svg width="296" height="337" viewBox="0 0 296 337" fill="none" xmlns="http://www.w3.org/2000/svg">
<path d="M48.9493 217.683V253.314C48.9493 253.314 48.962 253.327 48.9809 253.333C50.114 254.041 78.5797 271.458 145.341 251.532C145.354 251.532 145.373 251.519 145.379 251.519C163.724 244.694 180.916 236.124 196.652 226.057C208.267 218.619 219.091 210.371 228.998 201.391C251.716 180.858 269.604 156.553 281.156 129.757C285.625 119.418 289.138 108.699 291.62 97.6842C294.506 84.9562 296.006 71.8427 296.006 58.4259L295.753 49.098V49.0411C293.658 27.118 278.89 8.99928 259.065 2.54051C254.007 0.878416 248.608 -0.00634766 243.012 -0.00634766C229.346 -0.00634766 216.889 5.31487 207.495 14.0424C206.767 14.7123 206.052 15.4138 205.374 16.1216C195.88 25.9488 190.031 39.4857 190.031 54.4129H189.879V170.07C203.887 158.019 217.635 142.58 226.7 127.191V58.0657C226.7 53.4776 228.542 49.0095 232.004 45.9824C234.479 43.8147 238.024 42.0831 243.012 42.0831C247.19 42.0831 251.057 43.7831 254.222 46.6776C259.16 51.1898 261.369 57.9899 260.337 64.5877C259.179 72.026 257.552 79.3443 255.476 86.5235V86.5361C254.887 88.5964 254.267 90.6376 253.596 92.6726C251.836 98.0823 249.811 103.397 247.557 108.617C242.379 120.587 235.954 132.051 228.39 142.896C219.971 155.617 211.28 165.381 200.981 174.968C195.012 180.725 188.682 186.217 182.017 191.412C174.275 197.448 161.533 207.041 152.918 212.236C154.463 208.387 157.59 201.53 158.558 197.422C159.489 193.536 160.299 190.414 160.666 186.337C160.919 183.696 161.04 181.029 161.04 178.33C161.04 131.943 126.959 92.3945 81.789 92.3945C49.9178 92.3945 22.3066 111.107 8.81124 138.421C8.53272 138.984 8.26054 139.54 8.00734 140.109C3.89289 148.899 1.24065 158.524 0.335468 168.68C0.107591 171.208 -0.00634766 173.78 -0.00634766 176.378V336.994H36.8148V173.938C36.9794 172.181 37.1377 171.151 37.2643 169.931C39.9798 145.019 58.9506 125.725 81.9535 125.725C106.817 125.725 127.978 148.267 127.978 176.074C127.978 182.103 127.029 188.878 125.282 194.237C124.193 197.624 122.782 200.848 121.085 203.856C113.116 218.012 98.0126 226.417 81.9535 226.417C72.3827 226.417 56.2287 223.371 48.9366 217.677" fill="#C0DA58"/>
</svg>
