<svg width="30" height="30" viewBox="0 0 30 30" fill="none" xmlns="http://www.w3.org/2000/svg">
<path d="M15.165 19.2547C15.7172 19.2547 16.264 19.146 16.7741 18.9346C17.2843 18.7233 17.7479 18.4136 18.1383 18.0231C18.5288 17.6326 18.8386 17.1691 19.0499 16.6589C19.2612 16.1487 19.37 15.6019 19.37 15.0497C19.37 14.4975 19.2612 13.9507 19.0499 13.4405C18.8386 12.9304 18.5288 12.4668 18.1383 12.0763C17.7479 11.6859 17.2843 11.3761 16.7741 11.1648C16.264 10.9535 15.7172 10.8447 15.165 10.8447C14.0497 10.8447 12.9802 11.2878 12.1916 12.0763C11.403 12.8649 10.96 13.9345 10.96 15.0497C10.96 16.165 11.403 17.2345 12.1916 18.0231C12.9802 18.8117 14.0497 19.2547 15.165 19.2547Z" stroke="#70716F" stroke-width="1.5" stroke-linecap="round" stroke-linejoin="round"/>
<path d="M26.2287 18.8673C25.7335 20.2915 24.9688 21.6071 23.9762 22.7423L21.3212 22.1398C20.3143 23.0429 19.118 23.7092 17.82 24.0898L17.1025 26.6885C16.4299 26.8091 15.7483 26.8714 15.065 26.8748C14.2102 26.8758 13.358 26.7793 12.525 26.5873L11.7637 23.9048C10.6292 23.4866 9.58631 22.8529 8.69249 22.0385L6.06749 22.7135C5.02646 21.497 4.24505 20.0805 3.77124 18.551L5.70874 16.3985C5.53191 15.2977 5.56116 14.1737 5.79499 13.0835L3.88374 11.0898C4.43933 9.52591 5.31991 8.09747 6.46749 6.89854L9.17999 7.57354C9.9269 6.97467 10.759 6.49059 11.6487 6.13728L12.3662 3.48229C13.2524 3.25279 14.1633 3.13231 15.0787 3.12354C15.81 3.12354 16.5412 3.19103 17.26 3.32353L17.9487 5.96478C18.9862 6.30103 19.9587 6.81478 20.8187 7.48603L23.5462 6.78229C24.6466 7.89133 25.5148 9.20869 26.1 10.6573L24.25 12.666C24.6008 14.0426 24.6299 15.4814 24.335 16.871L26.2287 18.8673Z" stroke="#70716F" stroke-width="1.5" stroke-linecap="round" stroke-linejoin="round"/>
</svg>
